<svg aria-hidden="true" style="position: absolute; width: 0; height: 0; overflow: hidden;" version="1.1"
    xmlns="http://www.w3.org/2000/svg" xmlns:xlink="http://www.w3.org/1999/xlink">
    <defs>
        <symbol id="icon-comments" viewBox="0 0 32 32">
            <path
                d="M26.667 0h-21.333c-2.946 0-5.333 2.388-5.333 5.333v0 16c0 2.946 2.388 5.333 5.333 5.333v0h3.867l5.935 5.017c0.231 0.196 0.532 0.316 0.861 0.316s0.631-0.119 0.863-0.317l-0.002 0.002 5.943-5.017h3.867c2.946 0 5.333-2.388 5.333-5.333v0-16c0-2.946-2.388-5.333-5.333-5.333v0zM29.333 21.333c0 1.473-1.194 2.667-2.667 2.667v0h-3.867c-0.658 0-1.26 0.239-1.725 0.634l0.004-0.003-5.079 4.289-5.076-4.289c-0.461-0.392-1.064-0.631-1.722-0.631-0.001 0-0.001 0-0.002 0h-3.867c-1.473 0-2.667-1.194-2.667-2.667v0-16c0-1.473 1.194-2.667 2.667-2.667v0h21.333c1.473 0 2.667 1.194 2.667 2.667v0z">
            </path>
            <path
                d="M9.333 9.333h6.667c0.736 0 1.333-0.597 1.333-1.333s-0.597-1.333-1.333-1.333v0h-6.667c-0.736 0-1.333 0.597-1.333 1.333s0.597 1.333 1.333 1.333v0z">
            </path>
            <path
                d="M22.667 12h-13.333c-0.736 0-1.333 0.597-1.333 1.333s0.597 1.333 1.333 1.333v0h13.333c0.736 0 1.333-0.597 1.333-1.333s-0.597-1.333-1.333-1.333v0z">
            </path>
            <path
                d="M22.667 17.333h-13.333c-0.736 0-1.333 0.597-1.333 1.333s0.597 1.333 1.333 1.333v0h13.333c0.736 0 1.333-0.597 1.333-1.333s-0.597-1.333-1.333-1.333v0z">
            </path>
        </symbol>
        <symbol id="icon-download" viewBox="0 0 32 32">
            <path
                d="M13.171 24.163c0.724 0.724 1.724 1.172 2.829 1.172s2.105-0.448 2.829-1.172l4.281-4.281c0.214-0.236 0.344-0.55 0.344-0.894 0-0.736-0.597-1.333-1.333-1.333-0.346 0-0.66 0.131-0.897 0.347l0.001-0.001-3.901 3.903 0.009-20.569c0-0.736-0.597-1.333-1.333-1.333v0 0c-0.736 0-1.333 0.597-1.333 1.333v0l-0.012 20.544-3.88-3.877c-0.241-0.241-0.575-0.39-0.943-0.39-0.737 0-1.334 0.597-1.334 1.334 0 0.368 0.149 0.702 0.391 0.943v0z">
            </path>
            <path
                d="M30.667 21.333v0c-0.736 0-1.333 0.597-1.333 1.333v0 5.333c0 0.736-0.597 1.333-1.333 1.333v0h-24c-0.736 0-1.333-0.597-1.333-1.333v0-5.333c0-0.736-0.597-1.333-1.333-1.333v0 0c-0.736 0-1.333 0.597-1.333 1.333v0 5.333c0 2.209 1.791 4 4 4v0h24c2.209 0 4-1.791 4-4v0-5.333c0-0.736-0.597-1.333-1.333-1.333v0z">
            </path>
        </symbol>
        <symbol id="icon-eye" viewBox="0 0 32 32">
            <path
                d="M31.028 12.559c-2.068-3.368-6.772-9.019-15.028-9.019s-12.96 5.651-15.028 9.019c-0.614 0.978-0.978 2.167-0.978 3.441s0.364 2.463 0.994 3.469l-0.016-0.027c2.068 3.368 6.772 9.019 15.028 9.019s12.96-5.651 15.028-9.019c0.614-0.978 0.978-2.167 0.978-3.441s-0.364-2.463-0.994-3.469l0.016 0.027zM28.755 18.045c-1.776 2.888-5.796 7.748-12.755 7.748s-10.979-4.86-12.755-7.748c-0.365-0.581-0.581-1.288-0.581-2.045s0.216-1.464 0.591-2.062l-0.010 0.016c1.776-2.888 5.796-7.748 12.755-7.748s10.979 4.855 12.755 7.748c0.365 0.581 0.581 1.288 0.581 2.045s-0.216 1.464-0.591 2.062l0.010-0.016z">
            </path>
            <path
                d="M16 9.333c-3.682 0-6.667 2.985-6.667 6.667s2.985 6.667 6.667 6.667c3.682 0 6.667-2.985 6.667-6.667v0c-0.005-3.68-2.987-6.662-6.666-6.667h-0zM16 20c-2.209 0-4-1.791-4-4s1.791-4 4-4c2.209 0 4 1.791 4 4v0c0 2.209-1.791 4-4 4v0z">
            </path>
        </symbol>
        <symbol id="icon-search" viewBox="0 0 32 32">
            <path
                d="M31.415 28.594l-6.194-6.196c4.634-6.193 3.371-14.97-2.822-19.605s-14.97-3.371-19.605 2.822-3.371 14.97 2.822 19.605c4.975 3.723 11.807 3.723 16.782 0l6.196 6.196c0.779 0.779 2.041 0.779 2.82 0s0.779-2.041 0-2.82l0-0.003zM14.059 24.024c-5.504 0-9.966-4.462-9.966-9.966s4.462-9.966 9.966-9.966 9.966 4.462 9.966 9.966c-0.006 5.502-4.464 9.96-9.966 9.966z">
            </path>
        </symbol>
        <symbol id="icon-like" viewBox="0 0 32 32">
            <path
                d="M30.364 10.295c-1.228-1.409-3.025-2.295-5.029-2.295-0 0-0.001 0-0.002 0h-5.319l0.448-2.721c0.035-0.199 0.054-0.427 0.054-0.661 0-2.236-1.813-4.049-4.049-4.049-1.585 0-2.957 0.911-3.622 2.237l-0.011 0.023-2.552 5.171h-3.616c-3.68 0.005-6.662 2.987-6.667 6.666v6.667c0.005 3.68 2.987 6.662 6.666 6.667h17.734c3.348-0.014 6.115-2.482 6.597-5.697l0.005-0.037 0.94-6.667c0.041-0.278 0.064-0.598 0.064-0.924 0-1.681-0.622-3.216-1.648-4.389l0.007 0.008zM2.667 21.333v-6.667c0-2.209 1.791-4 4-4v0h2.667v14.667h-2.667c-2.209 0-4-1.791-4-4v0zM29.295 15.225l-0.941 6.667c-0.29 1.95-1.947 3.43-3.952 3.441h-12.401v-15.021c0.124-0.108 0.226-0.237 0.303-0.382l0.004-0.007 2.919-5.913c0.248-0.442 0.714-0.735 1.248-0.735 0.414 0 0.787 0.176 1.047 0.458l0.001 0.001c0.205 0.238 0.33 0.549 0.33 0.89 0 0.081-0.007 0.161-0.021 0.238l0.001-0.008-0.704 4.267c-0.011 0.064-0.017 0.138-0.017 0.213 0 0.736 0.597 1.333 1.333 1.333h6.889c0 0 0 0 0.001 0 2.209 0 4 1.791 4 4 0 0.197-0.014 0.391-0.042 0.58l0.003-0.022z">
            </path>
        </symbol>
    </defs>
</svg>